<svg xmlns="http://www.w3.org/2000/svg" viewBox="0 0 84.56 84.56"><defs><style>.cls-1{fill:#fff;}.cls-2{fill:#2e343a;}</style></defs><g id="Layer_2" data-name="Layer 2"><g id="Layer_1-2" data-name="Layer 1"><circle class="cls-1" cx="42.28" cy="42.28" r="42.28"/><path class="cls-2" d="M42.28,64.24A22.63,22.63,0,0,0,52.63,21.49a2.43,2.43,0,1,0-2.22,4.32,17.77,17.77,0,1,1-16.25,0,2.42,2.42,0,1,0-2.22-4.31A22.63,22.63,0,0,0,42.28,64.24Z"/><path class="cls-2" d="M42.28,35.38A2.43,2.43,0,0,0,44.71,33V18.16a2.43,2.43,0,0,0-4.86,0V33A2.43,2.43,0,0,0,42.28,35.38Z"/></g></g></svg>