<svg xmlns="http://www.w3.org/2000/svg" viewBox="0 0 299.15 263.43"><defs><style>.cls-1{fill:#2e343a;}</style></defs><g id="Layer_2" data-name="Layer 2"><g id="Layer_1-2" data-name="Layer 1"><path class="cls-1" d="M87.74,7.3V98.92a6.52,6.52,0,0,1-6.51,6.52H75.9a6.52,6.52,0,0,1-6.52-6.52V65.84a6.51,6.51,0,0,0-6.51-6.52H37.08A17.52,17.52,0,0,1,23.8,53.23l-3.42-4a1.16,1.16,0,0,0-2,.76l0,9.3h0v39.6a6.51,6.51,0,0,1-6.52,6.51H6.51A6.51,6.51,0,0,1,0,98.92V7.3A6.52,6.52,0,0,1,6.51.78h5.33A6.52,6.52,0,0,1,18.36,7.3V36.48A6.51,6.51,0,0,0,24.87,43H51a17.52,17.52,0,0,1,13.28,6.09l3.25,3.77a1.16,1.16,0,0,0,2-.76l-.09-19.81-.1.06V7.3A6.52,6.52,0,0,1,75.9.78h5.33A6.51,6.51,0,0,1,87.74,7.3Z"/><path class="cls-1" d="M99.63,12.83a10.91,10.91,0,0,1,21.46-4,10.91,10.91,0,0,1-21.46,4Zm19.48,28.09V99a6.52,6.52,0,0,1-6.52,6.51h-4.46A6.52,6.52,0,0,1,101.62,99V40.92a6.52,6.52,0,0,1,6.51-6.52h4.46A6.52,6.52,0,0,1,119.11,40.92Z"/><path class="cls-1" d="M91.21,210.82c0,17.06-6.94,31.8-19.08,40.9-10.84,8.24-25.3,11.71-45.39,11.71H6.51A6.51,6.51,0,0,1,0,256.92V165.3a6.52,6.52,0,0,1,6.51-6.52H29.05c16.19,0,29.78,2.6,40.48,9.54C83.4,177.28,91.21,192.75,91.21,210.82ZM72.85,209c0-13-5.78-23.27-14.45-29.2-8.24-5.64-18.79-6.65-30.21-6.65H22.82a4.46,4.46,0,0,0-4.46,4.46v67.53h0l-.05,10.7a.91.91,0,0,0,1.61.6l5.76-6.68a13.83,13.83,0,0,1,9.61-4.83c10.18-.63,17.92-2.8,24.09-7.31C67.5,231.66,72.85,221.54,72.85,209Z"/><path class="cls-1" d="M180.31,263.43H175a6.42,6.42,0,0,1-6-4.09l-5.49-14.09L157.66,230a.88.88,0,0,0-1.66.09L155,234a5.63,5.63,0,0,1-5.44,4.17H120.32a6,6,0,0,0-5.54,3.77l-6.89,17.42a6.43,6.43,0,0,1-6,4.06H97.18a6.42,6.42,0,0,1-5.94-8.86l37.09-90.43a6.44,6.44,0,0,1,5.95-4h9.06a6.43,6.43,0,0,1,5.95,4l37,90.42A6.43,6.43,0,0,1,180.31,263.43Zm-27.72-44.16a1.61,1.61,0,0,0,1.5-2.19l-5.15-13.36c-3-7.87-6.06-15.64-8.91-23.49a1.61,1.61,0,0,0-3,0c-2.92,8-5.86,15.58-8.9,23.49L123,217.08a1.61,1.61,0,0,0,1.5,2.19Z"/><path class="cls-1" d="M200.91,158.78h5.33a6.52,6.52,0,0,1,6.52,6.52v40.31l.29.15,39-44.53A6.51,6.51,0,0,1,257,159h4.65a6.51,6.51,0,0,1,4.86,10.84l-33.24,37.39a.17.17,0,0,0,0,.21l37.93,45.28a6.51,6.51,0,0,1-5,10.69h-6.1a6.51,6.51,0,0,1-5-2.36l-42-50.83-.28.15v46.53a6.51,6.51,0,0,1-6.52,6.51h-5.33a6.51,6.51,0,0,1-6.51-6.51V165.3A6.52,6.52,0,0,1,200.91,158.78Z"/><path class="cls-1" d="M287.31,158.78h5.33a6.51,6.51,0,0,1,6.51,6.52v91.62a6.5,6.5,0,0,1-6.51,6.51h-5.33a6.5,6.5,0,0,1-6.51-6.51V165.3A6.51,6.51,0,0,1,287.31,158.78Z"/></g></g></svg>