<svg xmlns="http://www.w3.org/2000/svg" viewBox="0 0 243.09 266.11"><defs><style>.cls-1{fill:#2e343a;}.cls-2{opacity:0.8;}</style></defs><g id="Layer_2" data-name="Layer 2"><g id="Layer_1-2" data-name="Layer 1"><path class="cls-1" d="M33.6,155.2v-.09l0-.25c-.43-3.45-3.89-7.44-4.76-8.39a.26.26,0,0,0-.39,0c-.87.95-4.33,4.94-4.76,8.39l0,.25v.09c0,.12,0,.24,0,.35a5,5,0,1,0,10,0C33.61,155.44,33.61,155.32,33.6,155.2Z"/><path class="cls-1" d="M207.8,51.72a5,5,0,0,1,.59,2.41c0,3.29-2.75,5.63-6.69,5.63S195,57.42,195,54.13a5,5,0,0,1,.67-2.56,3.09,3.09,0,0,1,1.17-1.1l1.74-.93a.43.43,0,0,0-.11-.8l-.42-.09a3.13,3.13,0,0,1-2.48-3v0c0-3,2.57-5.18,6.12-5.18s6.12,2.2,6.12,5.18v0a3.11,3.11,0,0,1-2.48,3l-.48.11a.43.43,0,0,0-.12.8l1.83,1A3.09,3.09,0,0,1,207.8,51.72ZM205.07,54a3.39,3.39,0,0,0-6.74,0,3.4,3.4,0,0,0,6.74,0Zm-3.37-5.5a2.8,2.8,0,0,0,3-2.65,3,3,0,1,0-3,2.65Z"/><path class="cls-1" d="M210.37,43l5-1.87A1.17,1.17,0,0,1,217,42.26v16.2a1.17,1.17,0,0,1-1.17,1.17h-1a1.17,1.17,0,0,1-1.17-1.17V49a5.92,5.92,0,0,1,1.07-3.38l.4-.58a.34.34,0,0,0-.4-.52l-1.07.39h0l-2.49.92a1.17,1.17,0,0,1-1.58-1.1v-.59A1.18,1.18,0,0,1,210.37,43Z"/><path class="cls-1" d="M223.77,50a4.8,4.8,0,0,1-4.88-5.14,4.89,4.89,0,1,1,9.76,0A4.8,4.8,0,0,1,223.77,50Zm0-2.58a2.32,2.32,0,0,0,2.12-2.56,2.16,2.16,0,1,0-4.24,0A2.32,2.32,0,0,0,223.77,47.42Zm12.82-5.61-11.09,17a1.18,1.18,0,0,1-1,.53h-.14a1.17,1.17,0,0,1-1-1.81l11.09-17a1.18,1.18,0,0,1,1-.53h.14A1.17,1.17,0,0,1,236.59,41.81ZM241.1,54.5a4.89,4.89,0,1,1-9.76,0,4.89,4.89,0,1,1,9.76,0Zm-2.76,0a2.16,2.16,0,1,0-2.12,2.56A2.32,2.32,0,0,0,238.34,54.5Z"/><path class="cls-1" d="M10.33,9.88a3.67,3.67,0,0,1-1.85,3.3,8.1,8.1,0,0,1-4.35.89h-3A.87.87,0,0,1,.2,13.2V.88A.87.87,0,0,1,1.08,0H4.13a7.45,7.45,0,0,1,4,.76A3.15,3.15,0,0,1,9.77,3.6,2.91,2.91,0,0,1,7.65,6.47v0A3.25,3.25,0,0,1,10.33,9.88ZM7.86,9.82C7.86,8.46,6.81,7.76,5,7.76H3.28a.61.61,0,0,0-.61.61v1.68l0,2.75a.16.16,0,0,0,.28.1l.49-.61a1.05,1.05,0,0,1,.81-.37h0A5.13,5.13,0,0,0,7,11.41,1.77,1.77,0,0,0,7.86,9.82ZM2.7,6.89A.15.15,0,0,0,3,7l.52-.63A1,1,0,0,1,4.29,6h.58C6.23,6,7.3,5.4,7.3,4.08a1.63,1.63,0,0,0-.88-1.53A4.8,4.8,0,0,0,4,2.16H3.28a.61.61,0,0,0-.61.61V4.23Z"/><path class="cls-1" d="M19.14,8v5.34a.81.81,0,0,1-1.62,0l0-.77a.18.18,0,0,0-.33-.07l-.48.8a2,2,0,0,1-1.36,1,5.87,5.87,0,0,1-.86.07,3.67,3.67,0,0,1-2.15-.62,2.57,2.57,0,0,1-1-2.13,2.64,2.64,0,0,1,1.18-2.25,4.71,4.71,0,0,1,2.61-.64,8.71,8.71,0,0,1,1.27.1.45.45,0,0,0,.52-.45,1.62,1.62,0,0,0-.45-1.25,2.28,2.28,0,0,0-1.57-.46,5,5,0,0,0-2.11.47.48.48,0,0,1-.68-.44v-1a.5.5,0,0,1,.28-.44,6.67,6.67,0,0,1,2.85-.6,4.69,4.69,0,0,1,3,.86A3,3,0,0,1,19.14,8Zm-2.28,2.76a.43.43,0,0,0-.35-.42,5.82,5.82,0,0,0-1.08-.11c-.95,0-1.87.3-1.87,1.21,0,.75.66,1.11,1.47,1.11a3.3,3.3,0,0,0,1.39-.32.76.76,0,0,0,.44-.7Z"/><path class="cls-1" d="M26.7,13.08v.19a.89.89,0,0,1-.64.84,4.61,4.61,0,0,1-1.31.19,3.06,3.06,0,0,1-2.33-.93,3.81,3.81,0,0,1-.78-2.74V6.52h-.79A.87.87,0,0,1,20,5.65V5.4a.87.87,0,0,1,.88-.88h.79V2.71a.88.88,0,0,1,.73-.86l.6-.11a.88.88,0,0,1,1,.87V4.52h1.83a.88.88,0,0,1,.88.88v.25a.88.88,0,0,1-.88.87H23.07a.14.14,0,0,0-.1.25l.6.5A1.21,1.21,0,0,1,24,8.2v2.09c0,1.07.2,2,1.27,2a1.72,1.72,0,0,0,.39,0A.89.89,0,0,1,26.7,13.08Z"/><path class="cls-1" d="M34,13.08v.19a.88.88,0,0,1-.64.84A4.61,4.61,0,0,1,32,14.3a3.06,3.06,0,0,1-2.33-.93,3.81,3.81,0,0,1-.78-2.74V6.52h-.79a.87.87,0,0,1-.88-.87V5.4a.87.87,0,0,1,.88-.88h.79V2.71a.88.88,0,0,1,.73-.86l.6-.11a.88.88,0,0,1,1,.87V4.52h1.83A.88.88,0,0,1,34,5.4v.25a.88.88,0,0,1-.88.87H30.33a.14.14,0,0,0-.09.25l.59.5a1.21,1.21,0,0,1,.42.92v2.09c0,1.07.2,2,1.27,2a1.87,1.87,0,0,0,.4,0A.88.88,0,0,1,34,13.08Z"/><path class="cls-1" d="M37,10.31a3,3,0,0,0,3.08,2,5.34,5.34,0,0,0,2-.42.9.9,0,0,1,1.24.83,1.07,1.07,0,0,1-.65,1,7.46,7.46,0,0,1-2.85.56c-3.07,0-5.33-2-5.33-5a4.84,4.84,0,0,1,4.88-5A4.35,4.35,0,0,1,43.82,9a.94.94,0,0,1-1,.95H37.22A.29.29,0,0,0,37,10.31Zm.33-2h4a.32.32,0,0,0,.3-.4,2.21,2.21,0,0,0-2.22-1.7A2.43,2.43,0,0,0,37,7.9.31.31,0,0,0,37.28,8.31Z"/><path class="cls-1" d="M50.89,5.16V6.1a.65.65,0,0,1-.66.65h-.11a3,3,0,0,0-2.23.92,1.41,1.41,0,0,0-.4,1v4.78a.64.64,0,0,1-.64.63H45.8a.64.64,0,0,1-.64-.63V5.27a.64.64,0,0,1,.64-.64h1a.64.64,0,0,1,.64.64V6.72a.21.21,0,0,0,.4.08l.57-1.26a1.59,1.59,0,0,1,1.14-.94,3.71,3.71,0,0,1,.67-.06h0A.63.63,0,0,1,50.89,5.16Z"/><path class="cls-1" d="M60.35,5.76,54.8,17.85a.87.87,0,0,1-.79.51h-.5a.87.87,0,0,1-.79-1.25l1.41-3a1.05,1.05,0,0,1,1-.59h.25a.22.22,0,0,0,.15-.39L54.16,12,51.3,5.77a.88.88,0,0,1,.79-1.25h.6A.9.9,0,0,1,53.5,5l1.07,2.44c.48,1.1.87,2,1.28,3h0c.45-1.07.93-2.16,1.4-3.21L58.3,5a.86.86,0,0,1,.8-.52h.46A.87.87,0,0,1,60.35,5.76Z"/><path class="cls-1" d="M48,62.93H9.25a6.4,6.4,0,0,1-6.39-6.39V42.64a6.4,6.4,0,0,1,6.39-6.39H48a6.4,6.4,0,0,1,6.39,6.39v13.9A6.4,6.4,0,0,1,48,62.93Zm-38.73-25a4.73,4.73,0,0,0-4.72,4.73v13.9a4.73,4.73,0,0,0,4.72,4.72H48a4.73,4.73,0,0,0,4.72-4.72V42.64A4.73,4.73,0,0,0,48,37.91Z"/><path class="cls-1" d="M53.59,45.17h2.78a1.11,1.11,0,0,1,1.11,1.11V52.9A1.11,1.11,0,0,1,56.37,54H53.59a0,0,0,0,1,0,0V45.17A0,0,0,0,1,53.59,45.17Z"/><path class="cls-1" d="M10.2,40H40.25a0,0,0,0,1,0,0V59.17a0,0,0,0,1,0,0H10.2a3.34,3.34,0,0,1-3.34-3.34V43.34A3.34,3.34,0,0,1,10.2,40Z"/><path class="cls-1" d="M12.25,104.85v12.33a.87.87,0,0,1-.87.87h-.72a.88.88,0,0,1-.88-.87v-4.45a.87.87,0,0,0-.87-.88H5.44A2.36,2.36,0,0,1,3.65,111l-.46-.53a.15.15,0,0,0-.27.1v1.25h0v5.33a.87.87,0,0,1-.87.87H1.33a.88.88,0,0,1-.88-.87V104.85a.88.88,0,0,1,.88-.87h.72a.87.87,0,0,1,.87.87v3.93a.88.88,0,0,0,.88.88H7.31a2.35,2.35,0,0,1,1.79.81l.44.51a.15.15,0,0,0,.27-.1v-2.67h0v-3.37a.88.88,0,0,1,.88-.87h.72A.87.87,0,0,1,12.25,104.85Z"/><path class="cls-1" d="M22.89,109.38v7.81a.87.87,0,0,1-.87.87h-.58a.87.87,0,0,1-.88-.8v-1a.25.25,0,0,0-.46-.12l-.46.79a2.61,2.61,0,0,1-2.21,1.31h0a3.42,3.42,0,0,1-2.55-1,4.06,4.06,0,0,1-.85-2.9v-5a.87.87,0,0,1,.87-.88h.6a.87.87,0,0,1,.88.88V114a2.46,2.46,0,0,0,.43,1.69,1.57,1.57,0,0,0,1.26.53,3.12,3.12,0,0,0,1.67-.54,1.84,1.84,0,0,0,.82-1.54v-4.74a.87.87,0,0,1,.88-.88H22A.87.87,0,0,1,22.89,109.38Z"/><path class="cls-1" d="M39.74,112.08v5.52a.45.45,0,0,1-.46.46H37.85a.46.46,0,0,1-.46-.46v-5.14a2.24,2.24,0,0,0-.43-1.59,1.54,1.54,0,0,0-1.22-.5,3.55,3.55,0,0,0-2.39,1.12,5.43,5.43,0,0,1,0,.59v5.52a.46.46,0,0,1-.46.46H31.47a.46.46,0,0,1-.46-.46v-5.14a2.23,2.23,0,0,0-.38-1.59,1.62,1.62,0,0,0-1.25-.5A3.59,3.59,0,0,0,27,111.51v6.09a.45.45,0,0,1-.46.46H25.1a.45.45,0,0,1-.46-.46V109a.46.46,0,0,1,.46-.46h1.41A.46.46,0,0,1,27,109v.55l0,0a4.49,4.49,0,0,1,3-1.24,3.13,3.13,0,0,1,2.86,1.49,5.09,5.09,0,0,1,3.5-1.49,3.33,3.33,0,0,1,2.49,1A3.9,3.9,0,0,1,39.74,112.08Z"/><path class="cls-1" d="M40.94,105.6a1.47,1.47,0,1,1,1.32,1.19A1.47,1.47,0,0,1,40.94,105.6Zm2.62,3.78v7.81a.87.87,0,0,1-.88.87h-.6a.87.87,0,0,1-.87-.87v-7.81a.87.87,0,0,1,.87-.88h.6A.87.87,0,0,1,43.56,109.38Z"/><path class="cls-1" d="M54.39,104.15v13.37a.54.54,0,0,1-.54.54H52.61a.54.54,0,0,1-.54-.54h0v-.9a.2.2,0,0,0-.37-.09l-.44.76a2,2,0,0,1-1.73,1h0a4.54,4.54,0,0,1-4.57-4.8A5,5,0,0,1,52,108.76l0,0v-4.59a.87.87,0,0,1,.87-.87h.6A.87.87,0,0,1,54.39,104.15Zm-2.34,7.2a.83.83,0,0,0-.54-.77,4.23,4.23,0,0,0-1.39-.25,2.78,2.78,0,0,0-2.83,3A2.68,2.68,0,0,0,50,116.3a3.68,3.68,0,0,0,1.61-.39.83.83,0,0,0,.46-.74Z"/><path class="cls-1" d="M55.89,105.6a1.47,1.47,0,1,1,1.32,1.19A1.46,1.46,0,0,1,55.89,105.6Zm2.62,3.78v7.81a.88.88,0,0,1-.88.87H57a.88.88,0,0,1-.88-.87v-7.81a.88.88,0,0,1,.88-.88h.6A.88.88,0,0,1,58.51,109.38Z"/><path class="cls-1" d="M66.28,117.06v.19a.88.88,0,0,1-.64.84,4.54,4.54,0,0,1-1.3.19,3.09,3.09,0,0,1-2.34-.94,3.82,3.82,0,0,1-.77-2.74v-4.1h-.8a.88.88,0,0,1-.88-.87v-.25a.88.88,0,0,1,.88-.88h.8v-1.81a.86.86,0,0,1,.72-.86l.6-.11a.88.88,0,0,1,1,.87v1.91H65.4a.87.87,0,0,1,.88.88v.25a.87.87,0,0,1-.88.87H62.65a.14.14,0,0,0-.09.25l.59.5a1.22,1.22,0,0,1,.43.92v2.09c0,1.07.19,2,1.26,2a2.71,2.71,0,0,0,.4,0A.88.88,0,0,1,66.28,117.06Z"/><path class="cls-1" d="M76,109.74,70.4,121.83a.87.87,0,0,1-.79.51h-.5a.87.87,0,0,1-.79-1.25l1.41-3a1.05,1.05,0,0,1,1-.59H71a.22.22,0,0,0,.15-.39l-1.35-1.23-2.86-6.19a.87.87,0,0,1,.79-1.24h.61a.88.88,0,0,1,.8.52l1.07,2.43c.49,1.11.87,2,1.28,3h0c.45-1.07.93-2.16,1.4-3.21l1-2.24a.88.88,0,0,1,.8-.52h.46A.88.88,0,0,1,76,109.74Z"/><path class="cls-1" d="M206.74,157.44v.25c0,3.47-2.8,6.05-6.64,6.05s-6.61-2.45-6.61-6.33c0-1.91.64-3.58,2.29-6.15l3.75-5.9a1.17,1.17,0,0,1,1-.54h1a1.16,1.16,0,0,1,1,1.8l-2,3-2.76,3.21a.29.29,0,0,0,.33.45l1.23-.51A5.34,5.34,0,0,1,206.74,157.44Zm-3.21.33a3.37,3.37,0,0,0-6.72-.11,3.29,3.29,0,0,0,3.35,3.27A3.2,3.2,0,0,0,203.53,157.77Z"/><path class="cls-1" d="M218.78,161.85v.59a1.17,1.17,0,0,1-1.17,1.17H208.3a1.17,1.17,0,0,1-.92-1.89l4.45-5.68c2-2.51,3-4,3-5.6,0-1.89-1.32-2.9-3.24-2.9a6.79,6.79,0,0,0-2.66.59,1.18,1.18,0,0,1-1.65-1.07v-.5a1.18,1.18,0,0,1,.62-1,8.3,8.3,0,0,1,3.95-1c3.5,0,6.3,2.07,6.3,5.62,0,2.34-1.2,4.38-3.27,7a9.41,9.41,0,0,1-3.2,2.58l-.7.35a.3.3,0,0,0,.14.57h6.53A1.17,1.17,0,0,1,218.78,161.85Z"/><path class="cls-1" d="M225.08,154a5.15,5.15,0,1,1,4.88-5.14A4.8,4.8,0,0,1,225.08,154Zm0-2.58a2.61,2.61,0,1,0-2.12-2.56A2.32,2.32,0,0,0,225.08,151.4Zm12.81-5.61-11.09,17a1.17,1.17,0,0,1-1,.53h-.14a1.17,1.17,0,0,1-1-1.81l11.09-17a1.16,1.16,0,0,1,1-.53h.14A1.17,1.17,0,0,1,237.89,145.79Zm4.51,12.69a4.89,4.89,0,1,1-4.88-5.14A4.79,4.79,0,0,1,242.4,158.48Zm-2.76,0a2.16,2.16,0,1,0-2.12,2.56A2.32,2.32,0,0,0,239.64,158.48Z"/><path class="cls-1" d="M48,166.91H9.25a6.4,6.4,0,0,1-6.39-6.4V146.62a6.4,6.4,0,0,1,6.39-6.4H48a6.4,6.4,0,0,1,6.39,6.4v13.89A6.4,6.4,0,0,1,48,166.91Zm-38.73-25a4.73,4.73,0,0,0-4.72,4.73v13.89a4.73,4.73,0,0,0,4.72,4.73H48a4.73,4.73,0,0,0,4.72-4.73V146.62A4.73,4.73,0,0,0,48,141.89Z"/><path class="cls-1" d="M53.59,149.14h2.78a1.11,1.11,0,0,1,1.11,1.11v6.62A1.11,1.11,0,0,1,56.37,158H53.59a0,0,0,0,1,0,0v-8.84A0,0,0,0,1,53.59,149.14Z"/><path class="cls-1" d="M1.57,225.27A8,8,0,0,0,4.7,226c1.4,0,2.41-.6,2.41-1.91,0-1.55-1.47-1.77-3.3-2.31S0,220.3,0,217.8s1.9-4.09,4.74-4.09a9.14,9.14,0,0,1,3.68.77.86.86,0,0,1,.5.79v.51a.87.87,0,0,1-1.22.8,7.87,7.87,0,0,0-3-.67c-1.32,0-2.25.53-2.25,1.71,0,1.5,1.48,1.69,3.17,2.22,2.08.64,3.94,1.55,3.94,4.14s-2,4.24-4.9,4.24a9.74,9.74,0,0,1-3.83-.82.86.86,0,0,1-.52-.8v-.53A.88.88,0,0,1,1.57,225.27Z"/><path class="cls-1" d="M18.75,226.69V227a.88.88,0,0,1-.56.82,6.59,6.59,0,0,1-2.43.46,5,5,0,0,1-5.29-5,5.09,5.09,0,0,1,5.4-5,6.37,6.37,0,0,1,2.15.38.87.87,0,0,1,.57.82v.3a.87.87,0,0,1-1.16.83,4.49,4.49,0,0,0-1.52-.28,2.95,2.95,0,1,0,0,5.89,4.8,4.8,0,0,0,1.63-.3A.87.87,0,0,1,18.75,226.69Z"/><path class="cls-1" d="M29.32,221.76v5.33a.92.92,0,0,1-.92.92h-.63a.92.92,0,0,1-.92-.92v-4.9a2.38,2.38,0,0,0-.41-1.71,1.6,1.6,0,0,0-1.31-.56,3.63,3.63,0,0,0-2.07.76,1.43,1.43,0,0,0-.58,1.16v5.25a.92.92,0,0,1-.92.92h-.63a.92.92,0,0,1-.92-.92V214.15a.92.92,0,0,1,.92-.92h.63a.92.92,0,0,1,.92.92v5.23a.33.33,0,0,0,.62.16l.2-.34a2.9,2.9,0,0,1,2.49-1.46h0a3.51,3.51,0,0,1,2.65,1.06A3.94,3.94,0,0,1,29.32,221.76Z"/><path class="cls-1" d="M33.08,224.23a3,3,0,0,0,3.08,2.05,5.11,5.11,0,0,0,2-.42.9.9,0,0,1,1.24.83,1.06,1.06,0,0,1-.64,1,7.7,7.7,0,0,1-2.85.56c-3.08,0-5.33-2-5.33-5a4.84,4.84,0,0,1,4.88-5A4.36,4.36,0,0,1,40,222.92a1,1,0,0,1-1,1H33.35A.28.28,0,0,0,33.08,224.23Zm.32-2h4a.32.32,0,0,0,.31-.4,2.22,2.22,0,0,0-2.22-1.7,2.43,2.43,0,0,0-2.36,1.68A.32.32,0,0,0,33.4,222.24Z"/><path class="cls-1" d="M50.37,214.1v13.37a.55.55,0,0,1-.55.54H48.59a.55.55,0,0,1-.55-.54h0v-.9a.2.2,0,0,0-.37-.1l-.45.77a2,2,0,0,1-1.72,1h0a4.54,4.54,0,0,1-4.56-4.8A5,5,0,0,1,48,218.71l0,0V214.1a.86.86,0,0,1,.86-.87h.61A.87.87,0,0,1,50.37,214.1ZM48,221.3a.82.82,0,0,0-.55-.77,4.19,4.19,0,0,0-1.39-.26,2.79,2.79,0,0,0-2.82,3A2.67,2.67,0,0,0,46,226.25a3.68,3.68,0,0,0,1.61-.39.83.83,0,0,0,.46-.74Z"/><path class="cls-1" d="M60.9,219.32v7.82A.87.87,0,0,1,60,228h-.58a.88.88,0,0,1-.88-.81v-.95a.25.25,0,0,0-.46-.12l-.46.79a2.61,2.61,0,0,1-2.21,1.31h0a3.35,3.35,0,0,1-2.54-1,4,4,0,0,1-.86-2.89v-5a.87.87,0,0,1,.88-.87h.6a.87.87,0,0,1,.87.87v4.61a2.46,2.46,0,0,0,.43,1.69,1.58,1.58,0,0,0,1.26.53,3.1,3.1,0,0,0,1.67-.54,1.83,1.83,0,0,0,.82-1.54v-4.75a.87.87,0,0,1,.88-.87H60A.87.87,0,0,1,60.9,219.32Z"/><path class="cls-1" d="M65,214.1v13a.87.87,0,0,1-.87.87h-.6a.87.87,0,0,1-.87-.87v-13a.88.88,0,0,1,.87-.88h.6A.88.88,0,0,1,65,214.1Z"/><path class="cls-1" d="M68.82,224.23a3,3,0,0,0,3.08,2.05,5.19,5.19,0,0,0,2-.42.9.9,0,0,1,1.24.83,1.07,1.07,0,0,1-.65,1,7.66,7.66,0,0,1-2.85.56c-3.07,0-5.33-2-5.33-5a4.84,4.84,0,0,1,4.88-5,4.36,4.36,0,0,1,4.47,4.69,1,1,0,0,1-1,1H69.09A.28.28,0,0,0,68.82,224.23Zm.33-2h4a.32.32,0,0,0,.31-.4,2.22,2.22,0,0,0-2.22-1.7,2.44,2.44,0,0,0-2.36,1.68A.32.32,0,0,0,69.15,222.24Z"/><path class="cls-1" d="M243.09,218.32v.32a.64.64,0,0,1-.64.64h-3.76a.3.3,0,0,0-.15.55l.63.37a1,1,0,0,1,.51.89v6.26a.65.65,0,0,1-.64.65h-.53a.65.65,0,0,1-.64-.65v-7.42a.65.65,0,0,0-.64-.65h-2.1a.64.64,0,0,1-.64-.64v-.33a.64.64,0,0,1,.64-.64h7.32A.65.65,0,0,1,243.09,218.32Z"/><path class="cls-1" d="M177.75,254.32a4.18,4.18,0,0,1,6.61,0,10.68,10.68,0,0,1,0,9.8,4.17,4.17,0,0,1-6.61,0,10.68,10.68,0,0,1,0-9.8Zm1.78,8.65a1.9,1.9,0,0,0,3.05,0,9.73,9.73,0,0,0,0-7.49,1.9,1.9,0,0,0-3.05,0,9.73,9.73,0,0,0,0,7.49Z"/><path class="cls-1" d="M193.9,264.48v.4a.79.79,0,0,1-.79.79h-6.29a.8.8,0,0,1-.62-1.28l3-3.83c1.35-1.7,2-2.71,2-3.78a1.93,1.93,0,0,0-2.19-2,4.68,4.68,0,0,0-1.8.39.79.79,0,0,1-1.11-.72v-.33a.82.82,0,0,1,.42-.7,5.67,5.67,0,0,1,2.66-.65c2.37,0,4.26,1.4,4.26,3.79,0,1.58-.81,3-2.21,4.73a6.42,6.42,0,0,1-2.16,1.74l-.47.23a.21.21,0,0,0,.09.39h4.41A.79.79,0,0,1,193.9,264.48Z"/><path class="cls-1" d="M196.3,256.68A1.31,1.31,0,1,1,195,258,1.32,1.32,0,0,1,196.3,256.68Zm0,6.37a1.31,1.31,0,1,1-1.32,1.31A1.32,1.32,0,0,1,196.3,263.05Z"/><path class="cls-1" d="M200,254.32a4.19,4.19,0,0,1,6.62,0,10.68,10.68,0,0,1,0,9.8,4.18,4.18,0,0,1-6.62,0,10.68,10.68,0,0,1,0-9.8Zm1.79,8.65a1.89,1.89,0,0,0,3,0,9.73,9.73,0,0,0,0-7.49,1.89,1.89,0,0,0-3,0,9.61,9.61,0,0,0,0,7.49Z"/><path class="cls-1" d="M210.46,254.32a4.19,4.19,0,0,1,6.62,0,10.68,10.68,0,0,1,0,9.8,4.18,4.18,0,0,1-6.62,0,10.68,10.68,0,0,1,0-9.8Zm1.79,8.65a1.89,1.89,0,0,0,3,0,9.73,9.73,0,0,0,0-7.49,1.89,1.89,0,0,0-3,0,9.61,9.61,0,0,0,0,7.49Z"/><path class="cls-1" d="M233.71,260.5a2.13,2.13,0,0,1-1.05,1.9,4.86,4.86,0,0,1-2.46.45h-.5a.14.14,0,0,0-.14.14v2.21a.47.47,0,0,1-.47.47h-.38a.47.47,0,0,1-.47-.47v-6.57a.47.47,0,0,1,.47-.47h1.63a4.66,4.66,0,0,1,2.23.4A2.11,2.11,0,0,1,233.71,260.5ZM230,262.16a1.19,1.19,0,0,1,.87-.42,2.08,2.08,0,0,0,1-.23,1.07,1.07,0,0,0,.53-1,1.05,1.05,0,0,0-.61-1,3.4,3.4,0,0,0-1.5-.2h-.48a.25.25,0,0,0-.24.25v2.83a.07.07,0,0,0,.13,0Z"/><path class="cls-1" d="M241.79,258.63v6.57a.47.47,0,0,1-.47.47h-.38a.47.47,0,0,1-.47-.47V262c0-.57,0-1.12,0-1.64-.31.48-.65.94-1,1.45l-1.14,1.63a.34.34,0,0,1-.54,0l-1.14-1.63c-.35-.51-.69-1-1-1.45,0,.52,0,1.07,0,1.64v3.24a.47.47,0,0,1-.47.47h-.34a.47.47,0,0,1-.47-.47v-6.57a.47.47,0,0,1,.47-.47h.57a.48.48,0,0,1,.38.2l2.19,3.13a.14.14,0,0,0,.23,0l2.19-3.13a.48.48,0,0,1,.38-.2h.55A.47.47,0,0,1,241.79,258.63Z"/><g class="cls-2"><path class="cls-1" d="M150.18,265v.13a.58.58,0,0,1-.42.56,3.06,3.06,0,0,1-.88.13,2,2,0,0,1-1.55-.63,2.54,2.54,0,0,1-.52-1.82v-2.74h-.53a.58.58,0,0,1-.58-.58v-.17a.58.58,0,0,1,.58-.58h.53v-1.21a.59.59,0,0,1,.49-.57l.4-.07a.58.58,0,0,1,.68.57v1.28h1.22a.58.58,0,0,1,.58.58v.17a.58.58,0,0,1-.58.58h-1.84a.09.09,0,0,0-.06.16l.39.34a.78.78,0,0,1,.29.61v1.4c0,.71.13,1.31.84,1.31l.27,0A.59.59,0,0,1,150.18,265Z"/><path class="cls-1" d="M157.43,262.49a3.46,3.46,0,1,1-3.46-3.33A3.33,3.33,0,0,1,157.43,262.49Zm-1.57,0a1.89,1.89,0,1,0-1.89,1.95A1.89,1.89,0,0,0,155.86,262.49Z"/></g><path class="cls-1" d="M47.21,254.77l3.39-1.27a.79.79,0,0,1,1.06.74v10.94a.79.79,0,0,1-.79.79h-.64a.79.79,0,0,1-.79-.79v-6.39a4,4,0,0,1,.72-2.29l.27-.38a.24.24,0,0,0-.27-.36l-.72.27h0l-1.69.62a.79.79,0,0,1-1.06-.74v-.4A.79.79,0,0,1,47.21,254.77Z"/><path class="cls-1" d="M60.86,264.78v.4a.8.8,0,0,1-.79.79H53.78a.79.79,0,0,1-.62-1.28l3-3.83c1.35-1.7,2-2.72,2-3.78a1.92,1.92,0,0,0-2.18-2,4.64,4.64,0,0,0-1.8.39.79.79,0,0,1-1.11-.72v-.33a.8.8,0,0,1,.42-.7,5.6,5.6,0,0,1,2.66-.66c2.36,0,4.25,1.4,4.25,3.8,0,1.58-.8,3-2.2,4.73A6.51,6.51,0,0,1,56,263.37l-.47.23a.2.2,0,0,0,.09.39h4.41A.79.79,0,0,1,60.86,264.78Z"/><path class="cls-1" d="M63.25,257a1.31,1.31,0,1,1-1.31,1.31A1.32,1.32,0,0,1,63.25,257Zm0,6.37a1.31,1.31,0,1,1-1.31,1.31A1.32,1.32,0,0,1,63.25,263.35Z"/><path class="cls-1" d="M67,254.62a4.18,4.18,0,0,1,6.61,0,10.68,10.68,0,0,1,0,9.8,4.17,4.17,0,0,1-6.61,0,10.68,10.68,0,0,1,0-9.8Zm1.78,8.65a1.9,1.9,0,0,0,3,0,9.73,9.73,0,0,0,0-7.49,1.9,1.9,0,0,0-3,0,9.73,9.73,0,0,0,0,7.49Z"/><path class="cls-1" d="M77.42,254.62a4.18,4.18,0,0,1,6.61,0,10.68,10.68,0,0,1,0,9.8,4.17,4.17,0,0,1-6.61,0,10.68,10.68,0,0,1,0-9.8Zm1.78,8.65a1.9,1.9,0,0,0,3,0,9.73,9.73,0,0,0,0-7.49,1.9,1.9,0,0,0-3,0,9.73,9.73,0,0,0,0,7.49Z"/><path class="cls-1" d="M102.53,260.79a2.15,2.15,0,0,1-1,1.91,4.86,4.86,0,0,1-2.46.45h-.5a.14.14,0,0,0-.14.14v2.21a.47.47,0,0,1-.47.47h-.38a.47.47,0,0,1-.47-.47v-6.57a.47.47,0,0,1,.47-.47h1.63a4.71,4.71,0,0,1,2.22.39A2.14,2.14,0,0,1,102.53,260.79Zm-3.76,1.67a1.19,1.19,0,0,1,.87-.42,2.22,2.22,0,0,0,1-.23,1.08,1.08,0,0,0,.53-1,1.05,1.05,0,0,0-.61-1,3.4,3.4,0,0,0-1.5-.2h-.48a.25.25,0,0,0-.24.25v2.83a.07.07,0,0,0,.13,0Z"/><path class="cls-1" d="M110.61,258.93v6.57a.47.47,0,0,1-.47.47h-.38a.47.47,0,0,1-.47-.47v-3.25c0-.56,0-1.11,0-1.63-.31.48-.65.94-1,1.45l-1.14,1.62a.33.33,0,0,1-.54,0l-1.14-1.62c-.35-.51-.69-1-1-1.45,0,.52,0,1.07,0,1.63v3.25a.47.47,0,0,1-.47.47h-.34a.47.47,0,0,1-.47-.47v-6.57a.47.47,0,0,1,.47-.47h.56a.49.49,0,0,1,.39.2l2.19,3.13a.14.14,0,0,0,.23,0l2.19-3.13a.48.48,0,0,1,.38-.2h.55A.47.47,0,0,1,110.61,258.93Z"/><g class="cls-2"><path class="cls-1" d="M6.78,256.43v.44a.46.46,0,0,1-.51.45l-.37,0c-.7,0-.84.47-.84,1.08a.84.84,0,0,1-.27.61l-.4.36a.15.15,0,0,0,.1.26H6.16a.45.45,0,0,1,.45.45v.43a.45.45,0,0,1-.45.45H5.06v4.59a.45.45,0,0,1-.45.45H3.94a.45.45,0,0,1-.45-.45v-4.59H3a.45.45,0,0,1-.45-.45v-.43A.45.45,0,0,1,3,259.6h.51v-1.09a2.71,2.71,0,0,1,.62-2,2.34,2.34,0,0,1,1.65-.56,3.42,3.42,0,0,1,.65.06A.45.45,0,0,1,6.78,256.43Z"/><path class="cls-1" d="M11.11,260v.62a.43.43,0,0,1-.44.43h-.08a2,2,0,0,0-1.48.62.9.9,0,0,0-.27.66v3.19a.42.42,0,0,1-.43.42h-.7a.42.42,0,0,1-.42-.42V260.1a.42.42,0,0,1,.42-.43H8.4a.43.43,0,0,1,.43.43v1a.14.14,0,0,0,.27.06l.37-.85a1.09,1.09,0,0,1,.76-.62,2.28,2.28,0,0,1,.45,0h0A.42.42,0,0,1,11.11,260Z"/><path class="cls-1" d="M18.27,262.79a3.33,3.33,0,0,1-3.46,3.32,3.33,3.33,0,1,1,0-6.65A3.33,3.33,0,0,1,18.27,262.79Zm-1.57,0a1.89,1.89,0,1,0-1.89,1.95A1.88,1.88,0,0,0,16.7,262.79Z"/><path class="cls-1" d="M29.22,262v3.69a.31.31,0,0,1-.31.3H28a.31.31,0,0,1-.31-.3v-3.43a1.46,1.46,0,0,0-.29-1.06,1,1,0,0,0-.81-.34,2.39,2.39,0,0,0-1.6.75,2.42,2.42,0,0,1,0,.39v3.69a.31.31,0,0,1-.31.3h-.95a.31.31,0,0,1-.31-.3v-3.43a1.49,1.49,0,0,0-.26-1.06,1.06,1.06,0,0,0-.83-.34,2.41,2.41,0,0,0-1.59.77v4.06a.31.31,0,0,1-.31.3h-.95a.31.31,0,0,1-.31-.3V259.9a.31.31,0,0,1,.31-.3h.94a.31.31,0,0,1,.31.3v.37l0,0a3,3,0,0,1,2-.83,2.09,2.09,0,0,1,1.91,1,3.38,3.38,0,0,1,2.33-1,2.22,2.22,0,0,1,1.66.64A2.6,2.6,0,0,1,29.22,262Z"/></g></g></g></svg>