<svg xmlns="http://www.w3.org/2000/svg" viewBox="0 0 717.41 27.13"><defs><style>.cls-1{fill:#94bff2;}</style></defs><g id="Layer_2" data-name="Layer 2"><g id="Layer_1-2" data-name="Layer 1"><path class="cls-1" d="M3.33,15.4c-.08,3.28,1.74,4,4,4,2,0,4.09-1,4.09-3.36S9.83,13.3,6.16,12C3.39,11.06.53,9.74.53,6.05s3.56-6,6.86-6a8.33,8.33,0,0,1,4.29,1,5.1,5.1,0,0,1,2.66,4.82H11.09C11,3.39,9.32,2.74,7.53,2.74c-2.15,0-3.75,1.18-3.75,3,0,2.6,2.1,3.08,5.21,4.2,2.88,1,5.71,2.07,5.71,5.88a5.6,5.6,0,0,1-2.24,4.82c-1.6,1.2-3.14,1.42-5.35,1.42C2.72,22.06,0,19.68,0,15.4Z"/><path class="cls-1" d="M29.48,16.3c-.56,3.92-3,5.85-6.27,5.85-4.48,0-6.63-3.84-6.63-7.79s2.35-7.78,6.8-7.78a5.83,5.83,0,0,1,6.05,5.77H26.18c-.14-2.47-1.12-3.25-3-3.25s-3.34,2.13-3.34,5.26,1.32,5.24,3.31,5.24c1.79,0,2.8-.81,3.05-3.3Z"/><path class="cls-1" d="M44.24,21.64H41.13V12.8c0-2.78-.87-3.73-3-3.73-1.57,0-3.28,1.32-3.28,4.34v8.23h-3V.28h3V8.34a5.38,5.38,0,0,1,4-1.79c3.39,0,5.38,2,5.38,5.49Z"/><path class="cls-1" d="M60.34,16.3c-1,4.14-3.44,5.85-7.06,5.85-4.5,0-6.63-3.84-6.63-7.79s2.27-7.78,6.77-7.78c4.82,0,6.92,3.5,6.92,7.87,0,.53-.22.78-.67.78H49.9c0,2.38,1.12,4.37,3.86,4.37,1.62,0,2.72-1.09,3.28-3.3Zm-3.22-3.56C57,10.61,55.86,9.1,53.51,9.1S50.12,10.86,50,12.74Z"/><path class="cls-1" d="M72.88,21.64l0-1.09c-.31.53-1.6,1.54-4,1.54-4.5,0-6.41-3.86-6.41-7.87s1.77-7.7,6.39-7.7a5,5,0,0,1,3.94,1.6V.28h2.94V18.76A14.84,14.84,0,0,0,76,21.64ZM72.8,14c0-2.8-1-5-3.64-5s-3.5,2.24-3.5,5c0,2.58.73,5.44,3.33,5.44a3.51,3.51,0,0,0,1.79-.42C72.24,18.23,72.8,16.46,72.8,14Z"/><path class="cls-1" d="M91.14,21.7h-3l.06-1.32a4.8,4.8,0,0,1-4,1.77c-3.39,0-5.09-2-5.09-5.55V7h3.11V15.9c0,2.78.67,3.73,2.71,3.73,1.6,0,3.25-1.32,3.25-4.37V7h2.94Z"/><path class="cls-1" d="M97.78,21.64H94.72V.2h3.06Z"/><path class="cls-1" d="M113.34,16.3c-1,4.14-3.44,5.85-7,5.85-4.51,0-6.64-3.84-6.64-7.79s2.27-7.78,6.78-7.78c4.81,0,6.91,3.5,6.91,7.87,0,.53-.22.78-.67.78H102.9c0,2.38,1.12,4.37,3.86,4.37,1.63,0,2.72-1.09,3.28-3.3Zm-3.22-3.56c-.14-2.13-1.26-3.64-3.61-3.64s-3.39,1.76-3.53,3.64Z"/><path class="cls-1" d="M218.76,21.64h-2.91V4.76l-.37,1.62-5,14.68a.76.76,0,0,1-.76.58H208a.71.71,0,0,1-.73-.58l-5-14.65-.34-1.62V21.64H199V1.23c0-.59.14-.75.73-.75h2.41a.81.81,0,0,1,.89.64l5.18,14.81.67,2.35.67-2.35,5.19-14.81a.81.81,0,0,1,.89-.64H218c.59,0,.73.16.73.75Z"/><path class="cls-1" d="M233.51,19.21a12.31,12.31,0,0,0,.23,2.49h-3.05l0-1.4a4.63,4.63,0,0,1-3.84,1.85c-3.61,0-5.24-1.65-5.24-4.68a4.74,4.74,0,0,1,3.06-4.42c2-.9,4.7-.73,5.9-.73v-.64c-.13-2-1-2.58-2.68-2.58-1.49,0-2.33.39-2.55,2.49h-3.25c.14-3.55,3.05-5,5.85-5,3.34,0,5.69,1.74,5.6,5.18Zm-4.59,0a2.91,2.91,0,0,0,1.37-1.79,8.81,8.81,0,0,0,.34-2.58c-1.6,0-5.82-.36-5.82,2.69,0,1.65.75,2.07,2.32,2.07A3.85,3.85,0,0,0,228.92,19.21Z"/><path class="cls-1" d="M239.84,27.13h-3.05V7.06h3.08l0,1a6.1,6.1,0,0,1,3.84-1.4c4.62,0,6.41,3.8,6.41,7.72s-1.88,7.84-6.44,7.84a5,5,0,0,1-3.81-1.59Zm7-12.91c0-2.77-.92-5.06-3.47-5.06s-3.67,2.21-3.67,5c0,3.14,1,5.49,3.78,5.49a2.72,2.72,0,0,0,1.63-.48C246.45,18.17,246.84,16.24,246.84,14.22Z"/><path class="cls-1" d="M358.46,21.64h-2.91V4.76l-.37,1.62-5,14.68a.76.76,0,0,1-.76.58h-1.76a.71.71,0,0,1-.73-.58l-5-14.65-.34-1.62V21.64h-2.91V1.23c0-.59.14-.75.73-.75h2.41a.81.81,0,0,1,.89.64l5.18,14.81.67,2.35.68-2.35,5.18-14.81a.81.81,0,0,1,.89-.64h2.41c.59,0,.73.16.73.75Z"/><path class="cls-1" d="M368.43,22.15c-4.85,0-7-3.95-7-7.79s2.18-7.78,7-7.78,7.05,3.95,7.05,7.78a8.51,8.51,0,0,1-1.73,5.35A6.53,6.53,0,0,1,368.43,22.15Zm3.83-7.79c0-2.54-1.15-5.26-3.83-5.26s-3.84,2.72-3.84,5.26,1.15,5.24,3.84,5.24a3,3,0,0,0,1.73-.45A5.59,5.59,0,0,0,372.26,14.36Z"/><path class="cls-1" d="M387.52,21.64l0-1.09c-.31.53-1.6,1.54-4,1.54-4.5,0-6.41-3.86-6.41-7.87s1.76-7.7,6.38-7.7a5,5,0,0,1,3.95,1.6V.28h2.94V18.76a14.84,14.84,0,0,0,.28,2.88ZM387.44,14c0-2.8-1-5-3.64-5s-3.5,2.24-3.5,5c0,2.58.73,5.44,3.33,5.44a3.51,3.51,0,0,0,1.79-.42C386.88,18.23,387.44,16.46,387.44,14Z"/><path class="cls-1" d="M406.45,16.3c-1,4.14-3.44,5.85-7.06,5.85-4.5,0-6.63-3.84-6.63-7.79s2.27-7.78,6.78-7.78c4.81,0,6.91,3.5,6.91,7.87,0,.53-.22.78-.67.78H396c0,2.38,1.12,4.37,3.86,4.37,1.63,0,2.72-1.09,3.28-3.3Zm-3.22-3.56c-.14-2.13-1.26-3.64-3.61-3.64s-3.39,1.76-3.53,3.64Z"/><path class="cls-1" d="M498.62,15.71c-.45,4.17-3.84,6.35-7.62,6.35-6.27,0-9-5.26-9-11S484.73,0,491,0c3.61,0,7.06,1.82,7.5,6.19h-3.27c-.37-2.47-2-3.45-4.17-3.45-4.37,0-5.74,4.18-5.74,8.32s1.37,8.32,5.74,8.32c2.15,0,3.69-.87,4.28-3.67Z"/><path class="cls-1" d="M513.32,21.7h-3l.06-1.32a4.82,4.82,0,0,1-4,1.77c-3.39,0-5.1-2-5.1-5.55V7h3.11V15.9c0,2.78.67,3.73,2.72,3.73,1.59,0,3.25-1.32,3.25-4.37V7h2.94Z"/><path class="cls-1" d="M519.11,17c.14,2.24,1.37,2.63,3,2.63s2.88-.53,2.88-2.16-1.59-1.73-3.78-2.35S516.42,14,516.42,11c0-3.27,3.08-4.42,5.63-4.42,2.77,0,5.41.87,5.77,4.68h-3.25a2.42,2.42,0,0,0-2.63-2.16c-1.34,0-2.35.39-2.35,1.65,0,1.63,1.79,1.29,5.63,2.72,2.15.7,3,2,3,3.64,0,3.47-3.16,5-6.44,5-2.55,0-5.68-1.23-5.91-5.18Z"/><path class="cls-1" d="M538.18,21.73a7.36,7.36,0,0,1-2.3.39c-2.15,0-3.94-.87-3.94-3.75V9.49h-2.72V6.94h2.72v-4h3v4H538V9.49h-3.08v8.29c0,1.57.37,1.85,1.26,1.85a3.81,3.81,0,0,0,2-.42Z"/><path class="cls-1" d="M546.16,22.15c-4.84,0-7-3.95-7-7.79s2.19-7.78,7-7.78,7.06,3.95,7.06,7.78a8.52,8.52,0,0,1-1.74,5.35A6.53,6.53,0,0,1,546.16,22.15ZM550,14.36c0-2.54-1.15-5.26-3.84-5.26s-3.83,2.72-3.83,5.26,1.14,5.24,3.83,5.24a3.09,3.09,0,0,0,1.74-.45A5.59,5.59,0,0,0,550,14.36Z"/><path class="cls-1" d="M576,21.7h-3V12.82c0-2.8-.62-3.72-2.58-3.72-1.37,0-2.72,1-3,3.3v9.3h-2.94V12.82c0-2.77-.67-3.72-2.6-3.72-1.54,0-3.11,1.32-3.11,4.37V21.7h-3V7h3V8.32a4.28,4.28,0,0,1,3.72-1.74,4,4,0,0,1,4,2.49,5.17,5.17,0,0,1,4.6-2.49c3.27,0,4.9,2,4.9,5.54Z"/><path class="cls-1" d="M593.4,16.3c-1,4.14-3.45,5.85-7.06,5.85-4.51,0-6.64-3.84-6.64-7.79s2.27-7.78,6.78-7.78c4.82,0,6.92,3.5,6.92,7.87,0,.53-.23.78-.68.78H583c0,2.38,1.12,4.37,3.87,4.37,1.62,0,2.71-1.09,3.27-3.3Zm-3.23-3.56c-.13-2.13-1.25-3.64-3.61-3.64s-3.39,1.76-3.52,3.64Z"/><path class="cls-1" d="M599.3,21.7h-3V7h3.11L599.3,8.6a4.1,4.1,0,0,1,3.14-2,5,5,0,0,1,1.82.28v3a3.89,3.89,0,0,0-1.71-.4c-1.68,0-3.25,1-3.25,4Z"/><path class="cls-1" d="M616.52,15.4c-.08,3.28,1.74,4,4,4,2,0,4.08-1,4.08-3.36S623,13.3,619.35,12c-2.77-.9-5.63-2.22-5.63-5.91s3.56-6,6.86-6a8.31,8.31,0,0,1,4.29,1,5.09,5.09,0,0,1,2.66,4.82h-3.25c-.14-2.49-1.76-3.14-3.56-3.14-2.15,0-3.75,1.18-3.75,3,0,2.6,2.1,3.08,5.21,4.2,2.88,1,5.71,2.07,5.71,5.88a5.6,5.6,0,0,1-2.24,4.82c-1.59,1.2-3.13,1.42-5.35,1.42-4.39,0-7.08-2.38-7.11-6.66Z"/><path class="cls-1" d="M643.63,16.3c-1,4.14-3.45,5.85-7.06,5.85-4.51,0-6.63-3.84-6.63-7.79s2.26-7.78,6.77-7.78c4.82,0,6.92,3.5,6.92,7.87,0,.53-.23.78-.67.78h-9.78c0,2.38,1.12,4.37,3.87,4.37,1.62,0,2.71-1.09,3.27-3.3Zm-3.22-3.56c-.14-2.13-1.26-3.64-3.61-3.64s-3.39,1.76-3.53,3.64Z"/><path class="cls-1" d="M649.54,21.7h-3V7h3.1l-.05,1.57a4.06,4.06,0,0,1,3.13-2,5,5,0,0,1,1.82.28v3a3.87,3.87,0,0,0-1.71-.4c-1.68,0-3.24,1-3.24,4Z"/><path class="cls-1" d="M663,21.17a.76.76,0,0,1-.78.53H660.4a.68.68,0,0,1-.73-.53L654,7h3.3l4.09,10.72,4-10.72h3.34Z"/><path class="cls-1" d="M673.36,3.56h-3.27V.45h3.27Zm-.11,18.08h-3v-15h3Z"/><path class="cls-1" d="M688.57,16.3c-.56,3.92-3,5.85-6.27,5.85-4.48,0-6.64-3.84-6.64-7.79s2.35-7.78,6.8-7.78a5.82,5.82,0,0,1,6,5.77h-3.25c-.14-2.47-1.11-3.25-3-3.25s-3.33,2.13-3.33,5.26,1.32,5.24,3.3,5.24c1.79,0,2.8-.81,3-3.3Z"/><path class="cls-1" d="M703.18,16.3c-1,4.14-3.44,5.85-7,5.85-4.51,0-6.64-3.84-6.64-7.79s2.27-7.78,6.78-7.78c4.81,0,6.91,3.5,6.91,7.87,0,.53-.22.78-.67.78h-9.77c0,2.38,1.12,4.37,3.86,4.37,1.63,0,2.72-1.09,3.28-3.3ZM700,12.74c-.13-2.13-1.26-3.64-3.61-3.64s-3.39,1.76-3.52,3.64Z"/><path class="cls-1" d="M708.31,17c.14,2.24,1.37,2.63,3,2.63s2.88-.53,2.88-2.16-1.59-1.73-3.78-2.35S705.62,14,705.62,11c0-3.27,3.08-4.42,5.63-4.42,2.77,0,5.4.87,5.77,4.68h-3.25a2.42,2.42,0,0,0-2.63-2.16c-1.35,0-2.35.39-2.35,1.65,0,1.63,1.79,1.29,5.62,2.72,2.16.7,3,2,3,3.64,0,3.47-3.16,5-6.44,5-2.55,0-5.68-1.23-5.91-5.18Z"/></g></g></svg>