<svg xmlns="http://www.w3.org/2000/svg" viewBox="0 0 84.56 84.56"><defs><style>.cls-1{fill:#fff;}.cls-2{fill:#94bff2;}</style></defs><g id="Layer_2" data-name="Layer 2"><g id="Layer_1-2" data-name="Layer 1"><circle class="cls-1" cx="42.28" cy="42.28" r="42.28"/><path class="cls-2" d="M42.28,64.47A22.62,22.62,0,0,1,31.93,21.73,2.43,2.43,0,0,1,34.16,26,17.77,17.77,0,1,0,50.4,26a2.43,2.43,0,1,1,2.23-4.32A22.63,22.63,0,0,1,42.28,64.47Z"/><path class="cls-2" d="M42.28,35.61a2.42,2.42,0,0,1-2.43-2.42V18.4a2.43,2.43,0,0,1,4.86,0V33.19A2.42,2.42,0,0,1,42.28,35.61Z"/></g></g></svg>